<svg xmlns="http://www.w3.org/2000/svg" xmlns:xlink="http://www.w3.org/1999/xlink" width="24" height="24" viewBox="0 0 24 24">
  <defs>
    <clipPath id="clip-path">
      <path id="area" d="M1448,136h24v24h-24V136Z" transform="translate(4 4)" fill="none" stroke="#707070" stroke-width="1" style="mix-blend-mode: multiply;isolation: isolate"/>
    </clipPath>
  </defs>
  <g id="ic_zoom_w" transform="translate(-1452 -140)" clip-path="url(#clip-path)">
    <path id="Path_45" data-name="Path 45" d="M4.613-3.082H3.4a1.4,1.4,0,0,0-.983.28.988.988,0,0,0-.292.748.886.886,0,0,0,.22.625.823.823,0,0,0,.637.239A2.019,2.019,0,0,0,3.887-1.4a2.332,2.332,0,0,0,.727-.558ZM3.458-5.738a3.006,3.006,0,0,0-1.084.206,5.228,5.228,0,0,0-.941.464q-.2.129-.31.071t-.107-.259V-6.483A5.653,5.653,0,0,1,2.26-6.844a7.436,7.436,0,0,1,1.317-.128,3.723,3.723,0,0,1,2.151.529,1.856,1.856,0,0,1,.757,1.634V-.143H4.649V-.86a2.363,2.363,0,0,1-.929.705A2.945,2.945,0,0,1,2.576.068a2.649,2.649,0,0,1-.917-.153A2.035,2.035,0,0,1,.95-.514a1.993,1.993,0,0,1-.459-.658,2.107,2.107,0,0,1-.167-.852A2.047,2.047,0,0,1,1.081-3.7,3.647,3.647,0,0,1,3.41-4.316h1.2v-.5a.815.815,0,0,0-.3-.711A1.461,1.461,0,0,0,3.458-5.738Z" transform="translate(1467.516 159.432)" fill="#fff" opacity="0.502"/>
    <path id="Path_46" data-name="Path 46" d="M4.625-14.04H7.958l5.2,14.5H10.94L9.292-4.113H3.977L2.347.46H.162L4.681-12.014a2.643,2.643,0,0,0,.185-.846,1.046,1.046,0,0,0-.241-.734ZM4.551-5.8H8.7l-2.093-6.06Z" transform="translate(1453.838 159.04)" fill="#fff"/>
  </g>
</svg>
