<svg xmlns="http://www.w3.org/2000/svg" xmlns:xlink="http://www.w3.org/1999/xlink" width="32" height="32" viewBox="0 0 32 32">
  <defs>
    <clipPath id="clip-path">
      <rect id="Rectangle_12" data-name="Rectangle 12" width="32" height="32"/>
    </clipPath>
  </defs>
  <g id="ico_url" clip-path="url(#clip-path)">
    <path id="ico_Box" data-name="ico Box" d="M18.26,0H13.74C4.34,0,0,3.62,0,13.74v4.52C0,28.38,4.34,32,13.74,32h4.52C27.66,32,32,28.38,32,18.26V13.74C32,3.62,27.66,0,18.26,0Z" fill="#ccc"/>
    <path id="ico" d="M22.673,9.341a4.574,4.574,0,0,0-6.476,0L13.735,11.8a1,1,0,0,0-.24,1,4.434,4.434,0,0,0-1.812,1.061L9.211,16.328A4.584,4.584,0,0,0,15.687,22.8l2.462-2.462a1,1,0,0,0,.24-1,4.534,4.534,0,0,0,1.822-1.061l2.462-2.462a4.574,4.574,0,0,0,0-6.476Zm-1.411,5.065L18.81,16.858a2.542,2.542,0,0,1-3.593-.05,1,1,0,0,0-1.431,1.4,4.554,4.554,0,0,0,2.4,1.281l-1.912,1.9a2.583,2.583,0,1,1-3.653-3.653l2.462-2.452a2.542,2.542,0,0,1,3.583.05,1,1,0,1,0,1.431-1.4h0a4.434,4.434,0,0,0-2.4-1.271l1.912-1.912A2.583,2.583,0,0,1,21.262,14.4Z" transform="translate(-0.017)" fill="#fff"/>
  </g>
</svg>
