<svg xmlns="http://www.w3.org/2000/svg" width="32" height="32" viewBox="0 0 32 32">
  <g id="ico_more" transform="translate(-2957 -514)">
    <path id="Shape_563" data-name="Shape 563" d="M2975.26,514h-4.52c-9.4,0-13.74,3.616-13.74,13.74v4.52c0,10.125,4.338,13.74,13.74,13.74h4.52c9.4,0,13.74-3.616,13.74-13.74v-4.52C2989,517.616,2984.662,514,2975.26,514Z" fill="#f2f2f2"/>
    <path id="Ellipse_563" data-name="Ellipse 563" d="M2977,530a2,2,0,1,1,2,2A2,2,0,0,1,2977,530Zm-6,0a2,2,0,1,1,2,2A2,2,0,0,1,2971,530Zm-6,0a2,2,0,1,1,2,2A2,2,0,0,1,2965,530Z" fill="#959595"/>
  </g>
</svg>
